<?xml version="1.0" encoding="utf-8"?>
<!-- Generator: Adobe Illustrator 21.1.0, SVG Export Plug-In . SVG Version: 6.00 Build 0)  -->
<svg version="1.1" id="Layer_1" xmlns="http://www.w3.org/2000/svg" xmlns:xlink="http://www.w3.org/1999/xlink" x="0px" y="0px"
	 viewBox="0 0 200 200" style="enable-background:new 0 0 200 200;" xml:space="preserve">
<style type="text/css">
	.st0{fill:#C4BBAF;}
</style>
<path class="st0" d="M49.6,161.4c-0.3-1.2-0.1-2.3,0.8-2.6c13.9-4.3,25.6-13.9,34-29.5c0,0-0.5-0.9-0.8-0.8
	c-18,13.3-24,14.4-33.9,15.8c-7.6,1.1-15.5-0.2-22.9-2.7C15.5,138,5.4,129.8,1.6,117.8c-2.1-6.8-2.4-14.5,0-21.4
	c1.7-5.1,4.5-9.5,8.7-13.1c8-7,17-10,26.8-12.6c5.5-1.4,10.9-2.5,16.2-3.5h-0.1c27.6-5.8,34-6.4,46.8-28.7
	c12.8,22.1,19,22.8,46.8,28.7h-0.1c5.4,1.1,10.9,2.1,16.2,3.5c9.8,2.6,18.8,5.5,26.7,12.5c4.2,3.7,7,8.1,8.7,13.1
	c2.4,7,2.1,14.6,0,21.4c-3.8,11.9-13.9,20-25.2,23.9c-7.4,2.5-15.2,3.8-22.9,2.7c-9.9-1.4-15.9-2.4-33.9-15.8
	c-0.2-0.1-0.8,0.6-0.8,0.8c8.4,15.6,20.1,25.2,34,29.5c1,0.3,1.2,1.4,0.9,2.6H49.6V161.4z"/>
</svg>
